<svg xmlns="http://www.w3.org/2000/svg" width="512" height="481.103"><path d="M441.73 389.894c-41.17-9.612-55.517-59.1-31.634-109.119 10.8-22.617 31.472-48.536 52.78-66.173l7.473-6.187.212 8.49c.338 13.519 5.434 30.046 17.8 57.728 6.333 14.18 13.03 31.66 14.88 38.844 4.248 16.49 3.53 35.732-1.74 46.627-4.711 9.74-16.873 21.592-26.569 25.891-8.781 3.894-25.044 5.804-33.203 3.899zm8.352-84.874c2.955-3.407 3.691-7.906 3.9-23.84l.257-19.64-4.804 3.77c-9.991 7.84-17.814 25.097-15.116 33.347 1.667 5.097 6.815 10.678 9.789 10.614 1.282-.028 3.97-1.94 5.974-4.25z" fill="#01b7ef"/><path d="M80.375 473.766C31.11 465.192-3.258 413.444 8.22 365.124c6.052-25.478 4.802-23.996 136.336-161.59L268.432 73.95l17.564 16.743 17.564 16.744-71.405 74.577-71.404 74.577 59.726-1.29 59.726-1.29 42.213-44.044 42.213-44.044 17.497 16.835 17.497 16.836L275.494 328.88C161.612 447.493 150.324 458.68 138.76 464.408c-19.535 9.672-38.82 12.764-58.385 9.358zM429.48 176.52c-3.276-1.96-36.806-33.259-74.512-69.553l-68.555-65.989-.216-10.015c-.17-7.859.824-11.307 4.618-16.019 6.375-7.916 16.219-11.425 24.736-8.817 9.264 2.838 146.783 134.796 149.458 143.414 6.429 20.719-16.671 38.26-35.529 26.98z" fill="#292929"/><path d="M43.58 376.282c-6.305 40.667 17.129 68.261 61.412 62.242 4.559-4.793 57.316-59.873 175.875-184.221-59.65 1.288-58.933-1.317-118.583-.028C42.887 377.989 40.524 377.094 43.58 376.282z" fill="#01b7ef"/></svg>